<svg width="117" height="17" viewBox="0 0 117 17" fill="none" xmlns="http://www.w3.org/2000/svg">
<g clip-path="url(#clip0_3202_240)">
<path d="M14.146 2.125H12.5522V1.59375C12.5522 1.45285 12.4963 1.31773 12.3966 1.2181C12.297 1.11847 12.1619 1.0625 12.021 1.0625C11.8801 1.0625 11.745 1.11847 11.6453 1.2181C11.5457 1.31773 11.4897 1.45285 11.4897 1.59375V2.125H6.17725V1.59375C6.17725 1.45285 6.12128 1.31773 6.02165 1.2181C5.92202 1.11847 5.78689 1.0625 5.646 1.0625C5.5051 1.0625 5.36997 1.11847 5.27035 1.2181C5.17072 1.31773 5.11475 1.45285 5.11475 1.59375V2.125H3.521C3.2392 2.125 2.96895 2.23694 2.7697 2.4362C2.57044 2.63546 2.4585 2.90571 2.4585 3.1875V13.8125C2.4585 14.0943 2.57044 14.3645 2.7697 14.5638C2.96895 14.7631 3.2392 14.875 3.521 14.875H14.146C14.4278 14.875 14.698 14.7631 14.8973 14.5638C15.0966 14.3645 15.2085 14.0943 15.2085 13.8125V3.1875C15.2085 2.90571 15.0966 2.63546 14.8973 2.4362C14.698 2.23694 14.4278 2.125 14.146 2.125ZM14.146 5.3125H3.521V3.1875H5.11475V3.71875C5.11475 3.85965 5.17072 3.99477 5.27035 4.0944C5.36997 4.19403 5.5051 4.25 5.646 4.25C5.78689 4.25 5.92202 4.19403 6.02165 4.0944C6.12128 3.99477 6.17725 3.85965 6.17725 3.71875V3.1875H11.4897V3.71875C11.4897 3.85965 11.5457 3.99477 11.6453 4.0944C11.745 4.19403 11.8801 4.25 12.021 4.25C12.1619 4.25 12.297 4.19403 12.3966 4.0944C12.4963 3.99477 12.5522 3.85965 12.5522 3.71875V3.1875H14.146V5.3125Z" fill="#282A3A"/>
</g>
<path d="M26.5665 14V3.81818H32.6716V4.91193H27.7994V8.35227H32.2142V9.44602H27.7994V14H26.5665ZM37.5453 14.1591C36.8095 14.1591 36.1748 13.9967 35.6412 13.6719C35.1109 13.3438 34.7016 12.8864 34.4132 12.2997C34.1282 11.7098 33.9857 11.0237 33.9857 10.2415C33.9857 9.45928 34.1282 8.76989 34.4132 8.1733C34.7016 7.57339 35.1026 7.10606 35.6163 6.77131C36.1334 6.43324 36.7366 6.2642 37.426 6.2642C37.8237 6.2642 38.2165 6.33049 38.6043 6.46307C38.992 6.59564 39.345 6.81108 39.6632 7.10938C39.9814 7.40436 40.2349 7.79545 40.4239 8.28267C40.6128 8.76989 40.7072 9.36979 40.7072 10.0824V10.5795H34.8209V9.56534H39.5141C39.5141 9.13447 39.4279 8.75 39.2555 8.41193C39.0865 8.07386 38.8446 7.80705 38.5297 7.61151C38.2181 7.41596 37.8502 7.31818 37.426 7.31818C36.9587 7.31818 36.5543 7.43419 36.2129 7.66619C35.8749 7.89489 35.6147 8.19318 35.4324 8.56108C35.2501 8.92898 35.159 9.32339 35.159 9.74432V10.4205C35.159 10.9972 35.2584 11.486 35.4572 11.8871C35.6594 12.2848 35.9395 12.5881 36.2974 12.7969C36.6554 13.0024 37.0714 13.1051 37.5453 13.1051C37.8536 13.1051 38.132 13.062 38.3805 12.9759C38.6324 12.8864 38.8495 12.7538 39.0318 12.5781C39.2141 12.3991 39.355 12.1771 39.4544 11.9119L40.5879 12.2301C40.4686 12.6146 40.2681 12.9527 39.9864 13.2443C39.7046 13.5327 39.3566 13.758 38.9423 13.9205C38.528 14.0795 38.0624 14.1591 37.5453 14.1591ZM42.9311 14V3.81818H44.1044V7.5767H44.2039C44.29 7.44413 44.4094 7.27509 44.5618 7.0696C44.7176 6.8608 44.9397 6.67519 45.228 6.51278C45.5197 6.34706 45.9141 6.2642 46.4113 6.2642C47.0542 6.2642 47.621 6.42495 48.1115 6.74645C48.6021 7.06794 48.9849 7.52367 49.26 8.11364C49.5351 8.7036 49.6726 9.39962 49.6726 10.2017C49.6726 11.0104 49.5351 11.7114 49.26 12.3047C48.9849 12.8946 48.6037 13.352 48.1165 13.6768C47.6293 13.9983 47.0675 14.1591 46.4311 14.1591C45.9406 14.1591 45.5479 14.0779 45.2529 13.9155C44.9579 13.7498 44.7309 13.5625 44.5718 13.3537C44.4127 13.1416 44.29 12.9659 44.2039 12.8267H44.0647V14H42.9311ZM44.0845 10.1818C44.0845 10.7585 44.1691 11.2673 44.3381 11.7081C44.5071 12.1456 44.7541 12.4886 45.0789 12.7372C45.4037 12.9825 45.8014 13.1051 46.272 13.1051C46.7626 13.1051 47.1719 12.9759 47.5 12.7173C47.8315 12.4555 48.08 12.1042 48.2458 11.6634C48.4148 11.2192 48.4993 10.7254 48.4993 10.1818C48.4993 9.64489 48.4165 9.16098 48.2507 8.73011C48.0883 8.29593 47.8414 7.95289 47.51 7.70099C47.1818 7.44579 46.7692 7.31818 46.272 7.31818C45.7948 7.31818 45.3937 7.43916 45.0689 7.68111C44.7441 7.91974 44.4988 8.2545 44.3331 8.68537C44.1674 9.11293 44.0845 9.61174 44.0845 10.1818ZM55.945 14V13.1051L59.3058 9.42614C59.7002 8.99526 60.025 8.62074 60.2802 8.30256C60.5354 7.98106 60.7243 7.67945 60.847 7.39773C60.9729 7.11269 61.0359 6.81439 61.0359 6.50284C61.0359 6.14489 60.9497 5.83499 60.7774 5.57315C60.6083 5.31132 60.3763 5.10914 60.0813 4.96662C59.7864 4.8241 59.4549 4.75284 59.087 4.75284C58.6959 4.75284 58.3545 4.83404 58.0629 4.99645C57.7745 5.15554 57.5508 5.37926 57.3917 5.66761C57.2359 5.95597 57.158 6.29403 57.158 6.68182H55.9847C55.9847 6.08523 56.1223 5.56155 56.3974 5.1108C56.6725 4.66004 57.047 4.30871 57.521 4.05682C57.9982 3.80492 58.5335 3.67898 59.1268 3.67898C59.7234 3.67898 60.252 3.80492 60.7127 4.05682C61.1734 4.30871 61.5347 4.64844 61.7965 5.07599C62.0584 5.50355 62.1893 5.97917 62.1893 6.50284C62.1893 6.87737 62.1213 7.24361 61.9855 7.60156C61.8529 7.9562 61.6209 8.35227 61.2894 8.78977C60.9613 9.22396 60.5056 9.75426 59.9222 10.3807L57.6353 12.8267V12.9062H62.3683V14H55.945ZM68.1419 14.1392C67.4856 14.1392 66.9006 14.0265 66.3869 13.8011C65.8765 13.5758 65.4705 13.2625 65.1689 12.8615C64.8706 12.4571 64.7082 11.9882 64.6817 11.4545H65.9345C65.961 11.7827 66.0737 12.0661 66.2726 12.3047C66.4714 12.54 66.7316 12.7223 67.0531 12.8516C67.3746 12.9808 67.7309 13.0455 68.122 13.0455C68.5595 13.0455 68.9473 12.9692 69.2853 12.8168C69.6234 12.6643 69.8886 12.4522 70.0808 12.1804C70.273 11.9086 70.3692 11.5938 70.3692 11.2358C70.3692 10.8613 70.2763 10.5315 70.0907 10.2464C69.9051 9.9581 69.6334 9.73272 69.2754 9.57031C68.9174 9.40791 68.4799 9.3267 67.9629 9.3267H67.1476V8.23295H67.9629C68.3673 8.23295 68.7219 8.16004 69.0268 8.0142C69.3351 7.86837 69.5754 7.66288 69.7477 7.39773C69.9234 7.13258 70.0112 6.82102 70.0112 6.46307C70.0112 6.11837 69.935 5.81842 69.7825 5.56321C69.63 5.308 69.4146 5.10914 69.1362 4.96662C68.8611 4.8241 68.5363 4.75284 68.1618 4.75284C67.8104 4.75284 67.479 4.81747 67.1674 4.94673C66.8592 5.07268 66.6073 5.25663 66.4118 5.49858C66.2162 5.73722 66.1102 6.02557 66.0936 6.36364H64.9004C64.9203 5.83002 65.081 5.36269 65.3826 4.96165C65.6843 4.55729 66.0787 4.24242 66.5659 4.01705C67.0564 3.79167 67.595 3.67898 68.1817 3.67898C68.8114 3.67898 69.3516 3.80658 69.8024 4.06179C70.2531 4.31368 70.5995 4.64678 70.8415 5.06108C71.0834 5.47538 71.2044 5.92282 71.2044 6.40341C71.2044 6.9768 71.0536 7.46567 70.752 7.87003C70.4537 8.27438 70.0477 8.55445 69.5339 8.71023V8.78977C70.1769 8.89583 70.679 9.16927 71.0403 9.61009C71.4016 10.0476 71.5822 10.5895 71.5822 11.2358C71.5822 11.7893 71.4314 12.2865 71.1298 12.7273C70.8315 13.1648 70.4238 13.5095 69.9068 13.7614C69.3897 14.0133 68.8014 14.1392 68.1419 14.1392ZM75.351 12.608L75.2715 13.1449C75.2151 13.5227 75.129 13.9271 75.013 14.358C74.9003 14.7888 74.7826 15.1948 74.66 15.576C74.5373 15.9571 74.4363 16.2604 74.3567 16.4858H73.4618C73.5049 16.2737 73.5613 15.9936 73.6309 15.6456C73.7005 15.2976 73.7701 14.9081 73.8397 14.4773C73.9126 14.0497 73.9722 13.6122 74.0186 13.1648L74.0783 12.608H75.351ZM82.0025 14V13.1051L85.3633 9.42614C85.7577 8.99526 86.0825 8.62074 86.3377 8.30256C86.5929 7.98106 86.7818 7.67945 86.9045 7.39773C87.0304 7.11269 87.0934 6.81439 87.0934 6.50284C87.0934 6.14489 87.0072 5.83499 86.8349 5.57315C86.6658 5.31132 86.4338 5.10914 86.1388 4.96662C85.8439 4.8241 85.5124 4.75284 85.1445 4.75284C84.7534 4.75284 84.412 4.83404 84.1204 4.99645C83.832 5.15554 83.6083 5.37926 83.4492 5.66761C83.2934 5.95597 83.2155 6.29403 83.2155 6.68182H82.0422C82.0422 6.08523 82.1798 5.56155 82.4549 5.1108C82.73 4.66004 83.1045 4.30871 83.5785 4.05682C84.0557 3.80492 84.591 3.67898 85.1843 3.67898C85.7809 3.67898 86.3095 3.80492 86.7702 4.05682C87.2309 4.30871 87.5922 4.64844 87.854 5.07599C88.1159 5.50355 88.2468 5.97917 88.2468 6.50284C88.2468 6.87737 88.1788 7.24361 88.043 7.60156C87.9104 7.9562 87.6784 8.35227 87.3469 8.78977C87.0188 9.22396 86.5631 9.75426 85.9797 10.3807L83.6928 12.8267V12.9062H88.4258V14H82.0025ZM94.0801 14.1392C93.331 14.1392 92.693 13.9354 92.166 13.5277C91.639 13.1167 91.2363 12.5218 90.9579 11.7429C90.6795 10.9607 90.5403 10.0161 90.5403 8.90909C90.5403 7.80871 90.6795 6.86908 90.9579 6.0902C91.2396 5.308 91.644 4.71141 92.171 4.30043C92.7013 3.88613 93.3376 3.67898 94.0801 3.67898C94.8225 3.67898 95.4572 3.88613 95.9842 4.30043C96.5145 4.71141 96.9188 5.308 97.1972 6.0902C97.479 6.86908 97.6198 7.80871 97.6198 8.90909C97.6198 10.0161 97.4806 10.9607 97.2022 11.7429C96.9238 12.5218 96.5211 13.1167 95.9941 13.5277C95.4671 13.9354 94.8291 14.1392 94.0801 14.1392ZM94.0801 13.0455C94.8225 13.0455 95.3992 12.6875 95.8102 11.9716C96.2212 11.2557 96.4266 10.2348 96.4266 8.90909C96.4266 8.02746 96.3322 7.27675 96.1433 6.65696C95.9577 6.03717 95.6892 5.56487 95.3379 5.24006C94.9899 4.91525 94.5706 4.75284 94.0801 4.75284C93.3443 4.75284 92.7692 5.11577 92.3549 5.84162C91.9406 6.56416 91.7335 7.58665 91.7335 8.90909C91.7335 9.79072 91.8263 10.5398 92.0119 11.1562C92.1975 11.7727 92.4643 12.2417 92.8123 12.5632C93.1636 12.8847 93.5862 13.0455 94.0801 13.0455ZM99.789 14V13.1051L103.15 9.42614C103.544 8.99526 103.869 8.62074 104.124 8.30256C104.379 7.98106 104.568 7.67945 104.691 7.39773C104.817 7.11269 104.88 6.81439 104.88 6.50284C104.88 6.14489 104.794 5.83499 104.621 5.57315C104.452 5.31132 104.22 5.10914 103.925 4.96662C103.63 4.8241 103.299 4.75284 102.931 4.75284C102.54 4.75284 102.199 4.83404 101.907 4.99645C101.619 5.15554 101.395 5.37926 101.236 5.66761C101.08 5.95597 101.002 6.29403 101.002 6.68182H99.8288C99.8288 6.08523 99.9664 5.56155 100.241 5.1108C100.517 4.66004 100.891 4.30871 101.365 4.05682C101.842 3.80492 102.378 3.67898 102.971 3.67898C103.567 3.67898 104.096 3.80492 104.557 4.05682C105.017 4.30871 105.379 4.64844 105.641 5.07599C105.902 5.50355 106.033 5.97917 106.033 6.50284C106.033 6.87737 105.965 7.24361 105.83 7.60156C105.697 7.9562 105.465 8.35227 105.133 8.78977C104.805 9.22396 104.35 9.75426 103.766 10.3807L101.479 12.8267V12.9062H106.212V14H99.789ZM108.088 11.9119V10.8977L112.563 3.81818H113.298V5.3892H112.801L109.421 10.7386V10.8182H115.446V11.9119H108.088ZM112.881 14V11.6037V11.1314V3.81818H114.054V14H112.881Z" fill="#282A3A"/>
<defs>
<clipPath id="clip0_3202_240">
<rect width="17" height="17" fill="white" transform="translate(0.333496)"/>
</clipPath>
</defs>
</svg>
