<svg width="374" height="22" viewBox="0 0 374 22" fill="none" xmlns="http://www.w3.org/2000/svg">
<path d="M243.493 5.36364L246.948 15.1591H247.084L250.539 5.36364H252.016L247.743 17H246.289L242.016 5.36364H243.493ZM253.647 17V8.27273H254.988V17H253.647ZM254.329 6.81818C254.067 6.81818 253.842 6.72917 253.652 6.55114C253.467 6.37311 253.374 6.15909 253.374 5.90909C253.374 5.65909 253.467 5.44508 253.652 5.26705C253.842 5.08902 254.067 5 254.329 5C254.59 5 254.813 5.08902 254.999 5.26705C255.188 5.44508 255.283 5.65909 255.283 5.90909C255.283 6.15909 255.188 6.37311 254.999 6.55114C254.813 6.72917 254.59 6.81818 254.329 6.81818ZM261.103 17.1818C260.262 17.1818 259.536 16.9962 258.927 16.625C258.32 16.25 257.853 15.7273 257.523 15.0568C257.197 14.3826 257.034 13.5985 257.034 12.7045C257.034 11.8106 257.197 11.0227 257.523 10.3409C257.853 9.6553 258.311 9.12121 258.898 8.73864C259.489 8.35227 260.178 8.15909 260.966 8.15909C261.421 8.15909 261.87 8.23485 262.313 8.38636C262.756 8.53788 263.159 8.78409 263.523 9.125C263.887 9.46212 264.177 9.90909 264.392 10.4659C264.608 11.0227 264.716 11.7083 264.716 12.5227V13.0909H257.989V11.9318H263.353C263.353 11.4394 263.254 11 263.057 10.6136C262.864 10.2273 262.588 9.92235 262.228 9.69886C261.872 9.47538 261.451 9.36364 260.966 9.36364C260.432 9.36364 259.97 9.49621 259.58 9.76136C259.194 10.0227 258.896 10.3636 258.688 10.7841C258.48 11.2045 258.375 11.6553 258.375 12.1364V12.9091C258.375 13.5682 258.489 14.1269 258.716 14.5852C258.947 15.0398 259.267 15.3864 259.677 15.625C260.086 15.8598 260.561 15.9773 261.103 15.9773C261.455 15.9773 261.773 15.928 262.057 15.8295C262.345 15.7273 262.593 15.5758 262.802 15.375C263.01 15.1705 263.171 14.9167 263.284 14.6136L264.58 14.9773C264.444 15.4167 264.214 15.803 263.892 16.1364C263.57 16.4659 263.173 16.7235 262.699 16.9091C262.226 17.0909 261.694 17.1818 261.103 17.1818ZM268.733 17L266.074 8.27273H267.483L269.37 14.9545H269.461L271.324 8.27273H272.756L274.597 14.9318H274.688L276.574 8.27273H277.983L275.324 17H274.006L272.097 10.2955H271.961L270.052 17H268.733ZM287.552 17.1818C286.824 17.1818 286.182 16.9981 285.625 16.6307C285.069 16.2595 284.633 15.7367 284.319 15.0625C284.004 14.3845 283.847 13.5833 283.847 12.6591C283.847 11.7424 284.004 10.947 284.319 10.2727C284.633 9.59848 285.07 9.07765 285.631 8.71023C286.192 8.3428 286.839 8.15909 287.574 8.15909C288.142 8.15909 288.591 8.25379 288.921 8.44318C289.254 8.62879 289.508 8.84091 289.682 9.07955C289.86 9.31439 289.999 9.50758 290.097 9.65909H290.211V5.36364H291.552V17H290.256V15.6591H290.097C289.999 15.8182 289.858 16.0189 289.677 16.2614C289.495 16.5 289.235 16.714 288.898 16.9034C288.561 17.089 288.112 17.1818 287.552 17.1818ZM287.733 15.9773C288.271 15.9773 288.726 15.8371 289.097 15.5568C289.468 15.2727 289.75 14.8807 289.944 14.3807C290.137 13.8769 290.233 13.2955 290.233 12.6364C290.233 11.9848 290.139 11.4148 289.949 10.9261C289.76 10.4337 289.48 10.0511 289.108 9.77841C288.737 9.50189 288.279 9.36364 287.733 9.36364C287.165 9.36364 286.692 9.50947 286.313 9.80114C285.938 10.089 285.656 10.4811 285.466 10.9773C285.281 11.4697 285.188 12.0227 285.188 12.6364C285.188 13.2576 285.283 13.822 285.472 14.3295C285.665 14.8333 285.949 15.2348 286.324 15.5341C286.703 15.8295 287.173 15.9773 287.733 15.9773ZM297.853 17.1818C297.012 17.1818 296.286 16.9962 295.677 16.625C295.07 16.25 294.603 15.7273 294.273 15.0568C293.947 14.3826 293.784 13.5985 293.784 12.7045C293.784 11.8106 293.947 11.0227 294.273 10.3409C294.603 9.6553 295.061 9.12121 295.648 8.73864C296.239 8.35227 296.928 8.15909 297.716 8.15909C298.171 8.15909 298.62 8.23485 299.063 8.38636C299.506 8.53788 299.909 8.78409 300.273 9.125C300.637 9.46212 300.927 9.90909 301.142 10.4659C301.358 11.0227 301.466 11.7083 301.466 12.5227V13.0909H294.739V11.9318H300.103C300.103 11.4394 300.004 11 299.807 10.6136C299.614 10.2273 299.338 9.92235 298.978 9.69886C298.622 9.47538 298.201 9.36364 297.716 9.36364C297.182 9.36364 296.72 9.49621 296.33 9.76136C295.944 10.0227 295.646 10.3636 295.438 10.7841C295.23 11.2045 295.125 11.6553 295.125 12.1364V12.9091C295.125 13.5682 295.239 14.1269 295.466 14.5852C295.697 15.0398 296.017 15.3864 296.427 15.625C296.836 15.8598 297.311 15.9773 297.853 15.9773C298.205 15.9773 298.523 15.928 298.807 15.8295C299.095 15.7273 299.343 15.5758 299.552 15.375C299.76 15.1705 299.921 14.9167 300.034 14.6136L301.33 14.9773C301.194 15.4167 300.964 15.803 300.642 16.1364C300.32 16.4659 299.923 16.7235 299.449 16.9091C298.976 17.0909 298.444 17.1818 297.853 17.1818ZM307.302 8.27273V9.40909H302.779V8.27273H307.302ZM304.097 6.18182H305.438V14.5C305.438 14.8788 305.493 15.1629 305.603 15.3523C305.716 15.5379 305.86 15.6629 306.034 15.7273C306.213 15.7879 306.4 15.8182 306.597 15.8182C306.745 15.8182 306.866 15.8106 306.961 15.7955C307.055 15.7765 307.131 15.7614 307.188 15.75L307.461 16.9545C307.37 16.9886 307.243 17.0227 307.08 17.0568C306.917 17.0947 306.711 17.1136 306.461 17.1136C306.082 17.1136 305.711 17.0322 305.347 16.8693C304.987 16.7064 304.688 16.4583 304.449 16.125C304.214 15.7917 304.097 15.3712 304.097 14.8636V6.18182ZM311.887 17.2045C311.334 17.2045 310.832 17.1004 310.381 16.892C309.93 16.6799 309.572 16.375 309.307 15.9773C309.042 15.5758 308.909 15.0909 308.909 14.5227C308.909 14.0227 309.008 13.6174 309.205 13.3068C309.402 12.9924 309.665 12.7462 309.995 12.5682C310.324 12.3902 310.688 12.2576 311.086 12.1705C311.487 12.0795 311.891 12.0076 312.296 11.9545C312.826 11.8864 313.256 11.8352 313.586 11.8011C313.919 11.7633 314.161 11.7008 314.313 11.6136C314.468 11.5265 314.546 11.375 314.546 11.1591V11.1136C314.546 10.553 314.392 10.1174 314.086 9.80682C313.783 9.49621 313.322 9.34091 312.705 9.34091C312.065 9.34091 311.563 9.48106 311.199 9.76136C310.836 10.0417 310.58 10.3409 310.432 10.6591L309.159 10.2045C309.387 9.67424 309.69 9.26136 310.069 8.96591C310.451 8.66667 310.868 8.45833 311.319 8.34091C311.773 8.2197 312.22 8.15909 312.659 8.15909C312.94 8.15909 313.262 8.19318 313.625 8.26136C313.993 8.32576 314.347 8.46023 314.688 8.66477C315.033 8.86932 315.319 9.17803 315.546 9.59091C315.773 10.0038 315.887 10.5568 315.887 11.25V17H314.546V15.8182H314.478C314.387 16.0076 314.235 16.2102 314.023 16.4261C313.811 16.642 313.529 16.8258 313.177 16.9773C312.824 17.1288 312.394 17.2045 311.887 17.2045ZM312.091 16C312.622 16 313.069 15.8958 313.432 15.6875C313.8 15.4792 314.076 15.2102 314.262 14.8807C314.451 14.5511 314.546 14.2045 314.546 13.8409V12.6136C314.489 12.6818 314.364 12.7443 314.171 12.8011C313.981 12.8542 313.762 12.9015 313.512 12.9432C313.266 12.9811 313.025 13.0152 312.79 13.0455C312.559 13.072 312.372 13.0947 312.228 13.1136C311.879 13.1591 311.553 13.233 311.25 13.3352C310.951 13.4337 310.709 13.5833 310.523 13.7841C310.341 13.9811 310.25 14.25 310.25 14.5909C310.25 15.0568 310.423 15.4091 310.767 15.6477C311.116 15.8826 311.557 16 312.091 16ZM318.334 17V8.27273H319.675V17H318.334ZM319.016 6.81818C318.755 6.81818 318.529 6.72917 318.34 6.55114C318.154 6.37311 318.061 6.15909 318.061 5.90909C318.061 5.65909 318.154 5.44508 318.34 5.26705C318.529 5.08902 318.755 5 319.016 5C319.277 5 319.501 5.08902 319.686 5.26705C319.876 5.44508 319.971 5.65909 319.971 5.90909C319.971 6.15909 319.876 6.37311 319.686 6.55114C319.501 6.72917 319.277 6.81818 319.016 6.81818ZM323.472 5.36364V17H322.131V5.36364H323.472ZM332.11 10.2273L330.905 10.5682C330.829 10.3674 330.718 10.1723 330.57 9.98295C330.426 9.78977 330.229 9.63068 329.979 9.50568C329.729 9.38068 329.409 9.31818 329.019 9.31818C328.485 9.31818 328.04 9.44129 327.684 9.6875C327.331 9.92992 327.155 10.2386 327.155 10.6136C327.155 10.947 327.276 11.2102 327.519 11.4034C327.761 11.5966 328.14 11.7576 328.655 11.8864L329.951 12.2045C330.731 12.3939 331.312 12.6837 331.695 13.0739C332.078 13.4602 332.269 13.9583 332.269 14.5682C332.269 15.0682 332.125 15.5152 331.837 15.9091C331.553 16.303 331.155 16.6136 330.644 16.8409C330.133 17.0682 329.538 17.1818 328.86 17.1818C327.97 17.1818 327.233 16.9886 326.65 16.6023C326.066 16.2159 325.697 15.6515 325.542 14.9091L326.814 14.5909C326.936 15.0606 327.165 15.4129 327.502 15.6477C327.843 15.8826 328.288 16 328.837 16C329.462 16 329.958 15.8674 330.326 15.6023C330.697 15.3333 330.883 15.0114 330.883 14.6364C330.883 14.3333 330.776 14.0795 330.564 13.875C330.352 13.6667 330.026 13.5114 329.587 13.4091L328.133 13.0682C327.333 12.8788 326.746 12.5852 326.371 12.1875C326 11.786 325.814 11.2841 325.814 10.6818C325.814 10.1894 325.953 9.75379 326.229 9.375C326.509 8.99621 326.89 8.69886 327.371 8.48295C327.856 8.26705 328.405 8.15909 329.019 8.15909C329.883 8.15909 330.561 8.34848 331.053 8.72727C331.549 9.10606 331.901 9.60606 332.11 10.2273Z" fill="#282A3A"/>
<g clip-path="url(#clip0_3202_250)">
<path d="M347.333 6L352.333 11L347.333 16" stroke="#282A3A" stroke-linecap="round" stroke-linejoin="round"/>
</g>
<defs>
<clipPath id="clip0_3202_250">
<rect width="16" height="16" fill="white" transform="translate(341.333 3)"/>
</clipPath>
</defs>
</svg>
