<svg width="90" height="17" viewBox="0 0 90 17" fill="none" xmlns="http://www.w3.org/2000/svg">
<g clip-path="url(#clip0_3202_233)">
<path d="M15.3351 14.6094C15.2885 14.6901 15.2214 14.7572 15.1406 14.8038C15.0599 14.8505 14.9682 14.875 14.8749 14.875H2.12494C2.03174 14.8749 1.94019 14.8503 1.85951 14.8036C1.77883 14.7569 1.71184 14.6899 1.66528 14.6091C1.61871 14.5284 1.59421 14.4368 1.59424 14.3436C1.59426 14.2504 1.61881 14.1588 1.66541 14.0781C2.67678 12.3296 4.23533 11.0759 6.0542 10.4815C5.15451 9.94594 4.4555 9.12982 4.06453 8.15851C3.67356 7.1872 3.61223 6.1144 3.88998 5.10486C4.16773 4.09532 4.76919 3.20487 5.60199 2.57025C6.4348 1.93562 7.4529 1.59192 8.49994 1.59192C9.54699 1.59192 10.5651 1.93562 11.3979 2.57025C12.2307 3.20487 12.8322 4.09532 13.1099 5.10486C13.3877 6.1144 13.3263 7.1872 12.9354 8.15851C12.5444 9.12982 11.8454 9.94594 10.9457 10.4815C12.7646 11.0759 14.3231 12.3296 15.3345 14.0781C15.3812 14.1588 15.4059 14.2504 15.406 14.3436C15.4061 14.4369 15.3817 14.5285 15.3351 14.6094Z" fill="#282A3A"/>
</g>
<path d="M30.1307 3.81818H31.3636V11.0966C31.3636 11.7462 31.2443 12.2981 31.0057 12.7521C30.767 13.2062 30.4306 13.5509 29.9964 13.7862C29.5623 14.0215 29.0502 14.1392 28.4602 14.1392C27.9034 14.1392 27.4079 14.0381 26.9737 13.8359C26.5395 13.6304 26.1982 13.3388 25.9496 12.9609C25.701 12.5831 25.5767 12.134 25.5767 11.6136H26.7898C26.7898 11.902 26.861 12.1539 27.0036 12.3693C27.1494 12.5814 27.3482 12.7472 27.6001 12.8665C27.852 12.9858 28.1387 13.0455 28.4602 13.0455C28.8149 13.0455 29.1165 12.9709 29.3651 12.8217C29.6136 12.6726 29.8026 12.4538 29.9318 12.1655C30.0644 11.8738 30.1307 11.5175 30.1307 11.0966V3.81818ZM37.0577 14.1591C36.3683 14.1591 35.7634 13.995 35.2431 13.6669C34.726 13.3388 34.3217 12.8797 34.03 12.2898C33.7416 11.6998 33.5975 11.0104 33.5975 10.2216C33.5975 9.42614 33.7416 8.73177 34.03 8.13849C34.3217 7.54522 34.726 7.08452 35.2431 6.75639C35.7634 6.42827 36.3683 6.2642 37.0577 6.2642C37.7471 6.2642 38.3503 6.42827 38.8674 6.75639C39.3877 7.08452 39.7921 7.54522 40.0804 8.13849C40.3721 8.73177 40.5179 9.42614 40.5179 10.2216C40.5179 11.0104 40.3721 11.6998 40.0804 12.2898C39.7921 12.8797 39.3877 13.3388 38.8674 13.6669C38.3503 13.995 37.7471 14.1591 37.0577 14.1591ZM37.0577 13.1051C37.5814 13.1051 38.0122 12.9709 38.3503 12.7024C38.6884 12.4339 38.9386 12.081 39.101 11.6435C39.2634 11.206 39.3446 10.732 39.3446 10.2216C39.3446 9.71117 39.2634 9.23556 39.101 8.79474C38.9386 8.35393 38.6884 7.99763 38.3503 7.72585C38.0122 7.45407 37.5814 7.31818 37.0577 7.31818C36.534 7.31818 36.1032 7.45407 35.7651 7.72585C35.427 7.99763 35.1768 8.35393 35.0144 8.79474C34.852 9.23556 34.7708 9.71117 34.7708 10.2216C34.7708 10.732 34.852 11.206 35.0144 11.6435C35.1768 12.081 35.427 12.4339 35.7651 12.7024C36.1032 12.9709 36.534 13.1051 37.0577 13.1051ZM43.7622 9.40625V14H42.5889V3.81818H43.7622V7.55682H43.8617C44.0406 7.16241 44.3091 6.84919 44.6671 6.61719C45.0283 6.38187 45.5089 6.2642 46.1088 6.2642C46.6292 6.2642 47.0849 6.36861 47.476 6.57741C47.8671 6.78291 48.1704 7.09943 48.3858 7.52699C48.6046 7.95123 48.7139 8.49148 48.7139 9.14773V14H47.5406V9.22727C47.5406 8.62074 47.3832 8.15175 47.0683 7.82031C46.7568 7.48556 46.3243 7.31818 45.7708 7.31818C45.3863 7.31818 45.0416 7.39938 44.7367 7.56179C44.4351 7.72419 44.1964 7.96117 44.0208 8.27273C43.8484 8.58428 43.7622 8.96212 43.7622 9.40625ZM52.3137 9.40625V14H51.1404V6.36364H52.2739V7.55682H52.3734C52.5524 7.16903 52.8241 6.85748 53.1887 6.62216C53.5533 6.38352 54.0239 6.2642 54.6007 6.2642C55.1177 6.2642 55.5701 6.37027 55.9579 6.58239C56.3457 6.79119 56.6473 7.10938 56.8627 7.53693C57.0782 7.96117 57.1859 8.49811 57.1859 9.14773V14H56.0126V9.22727C56.0126 8.62737 55.8568 8.16004 55.5453 7.82528C55.2337 7.48722 54.8061 7.31818 54.2626 7.31818C53.8881 7.31818 53.5533 7.39938 53.2583 7.56179C52.9667 7.72419 52.7363 7.96117 52.5673 8.27273C52.3982 8.58428 52.3137 8.96212 52.3137 9.40625ZM67.1285 14H63.9865V3.81818H67.2677C68.2554 3.81818 69.1006 4.02202 69.8032 4.42969C70.5059 4.83404 71.0445 5.41572 71.419 6.17472C71.7935 6.9304 71.9808 7.83523 71.9808 8.8892C71.9808 9.94981 71.7919 10.8629 71.414 11.6286C71.0362 12.3909 70.486 12.9775 69.7635 13.3885C69.0409 13.7962 68.1626 14 67.1285 14ZM65.2194 12.9062H67.049C67.8908 12.9062 68.5885 12.7438 69.142 12.419C69.6955 12.0942 70.1082 11.6319 70.3799 11.032C70.6517 10.4321 70.7876 9.7178 70.7876 8.8892C70.7876 8.06723 70.6534 7.35961 70.3849 6.76633C70.1164 6.16974 69.7154 5.71236 69.1818 5.39418C68.6482 5.07268 67.9836 4.91193 67.1882 4.91193H65.2194V12.9062ZM77.2722 14.1591C76.5828 14.1591 75.9779 13.995 75.4575 13.6669C74.9405 13.3388 74.5361 12.8797 74.2445 12.2898C73.9561 11.6998 73.8119 11.0104 73.8119 10.2216C73.8119 9.42614 73.9561 8.73177 74.2445 8.13849C74.5361 7.54522 74.9405 7.08452 75.4575 6.75639C75.9779 6.42827 76.5828 6.2642 77.2722 6.2642C77.9615 6.2642 78.5648 6.42827 79.0818 6.75639C79.6022 7.08452 80.0065 7.54522 80.2949 8.13849C80.5865 8.73177 80.7324 9.42614 80.7324 10.2216C80.7324 11.0104 80.5865 11.6998 80.2949 12.2898C80.0065 12.8797 79.6022 13.3388 79.0818 13.6669C78.5648 13.995 77.9615 14.1591 77.2722 14.1591ZM77.2722 13.1051C77.7958 13.1051 78.2267 12.9709 78.5648 12.7024C78.9028 12.4339 79.1531 12.081 79.3155 11.6435C79.4779 11.206 79.5591 10.732 79.5591 10.2216C79.5591 9.71117 79.4779 9.23556 79.3155 8.79474C79.1531 8.35393 78.9028 7.99763 78.5648 7.72585C78.2267 7.45407 77.7958 7.31818 77.2722 7.31818C76.7485 7.31818 76.3176 7.45407 75.9795 7.72585C75.6415 7.99763 75.3912 8.35393 75.2288 8.79474C75.0664 9.23556 74.9852 9.71117 74.9852 10.2216C74.9852 10.732 75.0664 11.206 75.2288 11.6435C75.3912 12.081 75.6415 12.4339 75.9795 12.7024C76.3176 12.9709 76.7485 13.1051 77.2722 13.1051ZM86.0051 14.1591C85.2693 14.1591 84.6346 13.9967 84.101 13.6719C83.5707 13.3438 83.1613 12.8864 82.873 12.2997C82.588 11.7098 82.4454 11.0237 82.4454 10.2415C82.4454 9.45928 82.588 8.76989 82.873 8.1733C83.1613 7.57339 83.5624 7.10606 84.0761 6.77131C84.5932 6.43324 85.1964 6.2642 85.8858 6.2642C86.2835 6.2642 86.6763 6.33049 87.064 6.46307C87.4518 6.59564 87.8048 6.81108 88.123 7.10938C88.4412 7.40436 88.6947 7.79545 88.8837 8.28267C89.0726 8.76989 89.167 9.36979 89.167 10.0824V10.5795H83.2807V9.56534H87.9738C87.9738 9.13447 87.8877 8.75 87.7153 8.41193C87.5463 8.07386 87.3043 7.80705 86.9895 7.61151C86.6779 7.41596 86.31 7.31818 85.8858 7.31818C85.4185 7.31818 85.0141 7.43419 84.6727 7.66619C84.3346 7.89489 84.0745 8.19318 83.8922 8.56108C83.7099 8.92898 83.6187 9.32339 83.6187 9.74432V10.4205C83.6187 10.9972 83.7182 11.486 83.917 11.8871C84.1192 12.2848 84.3993 12.5881 84.7572 12.7969C85.1152 13.0024 85.5311 13.1051 86.0051 13.1051C86.3133 13.1051 86.5917 13.062 86.8403 12.9759C87.0922 12.8864 87.3093 12.7538 87.4916 12.5781C87.6739 12.3991 87.8148 12.1771 87.9142 11.9119L89.0477 12.2301C88.9284 12.6146 88.7279 12.9527 88.4461 13.2443C88.1644 13.5327 87.8164 13.758 87.4021 13.9205C86.9878 14.0795 86.5221 14.1591 86.0051 14.1591Z" fill="#282A3A"/>
<defs>
<clipPath id="clip0_3202_233">
<rect width="17" height="17" fill="white"/>
</clipPath>
</defs>
</svg>
